<svg id="img-service-dcm" xmlns="http://www.w3.org/2000/svg" xmlns:xlink="http://www.w3.org/1999/xlink" width="20" height="20" viewBox="0 0 20 20">
  <defs>
    <clipPath id="clip-path">
      <rect id="사각형_3805" data-name="사각형 3805" width="20" height="20" fill="#4882ef"/>
    </clipPath>
  </defs>
  <g id="마스크_그룹_11398" data-name="마스크 그룹 11398" clip-path="url(#clip-path)">
    <g id="그룹_12366" data-name="그룹 12366" transform="translate(0.25 2.75)">
      <path id="패스_11104" data-name="패스 11104" d="M422.549,161.75H421.3V160.5a.5.5,0,0,0-1,0v1.25h-1.25a.5.5,0,0,0,0,1h1.25V164a.5.5,0,0,0,1,0v-1.25h1.25a.5.5,0,0,0,0-1Z" transform="translate(-416.799 -152.75)" fill="#4882ef"/>
      <path id="패스_11105" data-name="패스 11105" d="M473.092,145a1,1,0,0,0-1.035.7,8.09,8.09,0,0,0-1.226.2c.043.195.078.388.106.581a7.4,7.4,0,0,1,1.121-.185,1,1,0,1,0,1.034-1.3Z" transform="translate(-456.011 -141.5)" fill="#4882ef"/>
      <path id="패스_11106" data-name="패스 11106" d="M462.206,168.708c.068-.18.14-.383.211-.607-.2-.049-.395-.1-.587-.166-.06.192-.121.366-.179.524a1,1,0,1,0,.555.249Z" transform="translate(-448.294 -158.701)" fill="#4882ef"/>
      <path id="패스_11107" data-name="패스 11107" d="M424.3,131a6.76,6.76,0,0,0-6.715,6.06,4,4,0,1,0-2.035,7.44h8.75a6.75,6.75,0,0,0,0-13.5Zm0,13a6.2,6.2,0,0,1-1.994-.329,2.745,2.745,0,0,0-.224-4.047q-.135.209-.264.434A2.247,2.247,0,0,1,420.339,144h-4.79a3.5,3.5,0,1,1,3.38-4.4l.08.3.278-.147a2.223,2.223,0,0,1,1.051-.262,2.276,2.276,0,0,1,.242.014c.09-.159.18-.315.273-.464a2.721,2.721,0,0,0-1.528.144,3.993,3.993,0,0,0-1.267-1.8h0A6.25,6.25,0,1,1,424.3,144Z" transform="translate(-411.549 -131)" fill="#4882ef"/>
      <g id="그룹_12365" data-name="그룹 12365" transform="translate(8.25 4)">
        <path id="패스_11108" data-name="패스 11108" d="M446.959,149.342a7.6,7.6,0,0,1-.628-.722,1,1,0,1,0-.51.342,8.676,8.676,0,0,0,.724.821C446.681,149.627,446.82,149.481,446.959,149.342Z" transform="translate(-444.549 -147)" fill="#4882ef"/>
        <path id="패스_11109" data-name="패스 11109" d="M461.837,160.632a1,1,0,0,0-.931.641,7.941,7.941,0,0,1-3.889-1.43q-.211.208-.417.444a8.555,8.555,0,0,0,4.277,1.61,1,1,0,1,0,.96-1.265Z" transform="translate(-453.586 -156.632)" fill="#4882ef"/>
      </g>
      <path id="패스_11110" data-name="패스 11110" d="M462.893,138.471a1.3,1.3,0,1,0-1.618.872,1.311,1.311,0,0,0,.375.055,1.288,1.288,0,0,0,.2-.018,8.145,8.145,0,0,1,.164,3.861c.194.065.391.125.591.175a8.66,8.66,0,0,0-.194-4.275A1.287,1.287,0,0,0,462.893,138.471Zm-1.446.3a.7.7,0,0,1,.2-1.371.706.706,0,0,1,.2.03.7.7,0,0,1-.4,1.341Z" transform="translate(-448.148 -135.349)" fill="#4882ef"/>
      <path id="패스_11111" data-name="패스 11111" d="M447.66,150.952q-.03-.3-.087-.6a8.919,8.919,0,0,0-4.583,4.682,1.228,1.228,0,0,0-.191-.019,1.26,1.26,0,1,0,.742.249A8.3,8.3,0,0,1,447.66,150.952Zm-4.861,5.96a.65.65,0,1,1,.65-.65A.651.651,0,0,1,442.8,156.912Z" transform="translate(-434.049 -145.512)" fill="#4882ef"/>
    </g>
  </g>
</svg>
