<svg id="img-service-pipeline" xmlns="http://www.w3.org/2000/svg" xmlns:xlink="http://www.w3.org/1999/xlink" width="20" height="20" viewBox="0 0 20 20">
  <defs>
    <clipPath id="clip-path">
      <rect id="사각형_3804" data-name="사각형 3804" width="20" height="20" fill="#4882ef"/>
    </clipPath>
  </defs>
  <g id="마스크_그룹_11397" data-name="마스크 그룹 11397" clip-path="url(#clip-path)">
    <g id="그룹_12364" data-name="그룹 12364" transform="translate(0.25 2.75)">
      <path id="패스_11102" data-name="패스 11102" d="M326.479,167.75h1.07a.25.25,0,0,0,0-.5h-1.07a.5.5,0,1,0,0,.5Z" transform="translate(-322.049 -158)" fill="#4882ef"/>
      <path id="패스_11103" data-name="패스 11103" d="M324.3,131a6.76,6.76,0,0,0-6.715,6.063,3.98,3.98,0,0,0-4.853.6l-.01.007s0,.007-.006.01a3.991,3.991,0,0,0,0,5.637s0,.007.006.01l.01.007a3.987,3.987,0,0,0,2.819,1.165h8.75a6.75,6.75,0,0,0,0-13.5Zm-8.75,12.135a.25.25,0,0,0-.25.25v.6a3.479,3.479,0,0,1-2.039-.845l.426-.426a.25.25,0,0,0-.353-.353l-.426.425a3.482,3.482,0,0,1-.845-2.038h.6a.25.25,0,0,0,0-.5h-.6a3.482,3.482,0,0,1,.845-2.038l.426.425a.25.25,0,0,0,.353-.353l-.426-.426a3.479,3.479,0,0,1,2.039-.845v.6a.25.25,0,0,0,.5,0v-.6a3.48,3.48,0,0,1,2.039.845l-.426.426a.25.25,0,1,0,.354.353l.426-.425a3.48,3.48,0,0,1,.845,2.038h-.6a.25.25,0,0,0,0,.5h.6a3.48,3.48,0,0,1-.845,2.038l-.426-.425a.25.25,0,0,0-.354.353l.426.426a3.48,3.48,0,0,1-2.039.845v-.6A.25.25,0,0,0,315.549,143.135Zm1.932.865a4.012,4.012,0,0,0,.886-.665s.007,0,.01-.007,0-.007.007-.01a4.013,4.013,0,0,0,.8-1.167A6.789,6.789,0,0,0,321.753,144Zm6.818,0a6.24,6.24,0,0,1-4.91-2.39,3.965,3.965,0,0,0-.019-2.293,2.245,2.245,0,0,0,.929-1.817,1.752,1.752,0,0,1,1.75-1.75v.5a.75.75,0,0,0,.75.75h3a.75.75,0,0,0,.75-.75v-.5a2,2,0,0,1,0,4v-.5a.75.75,0,0,0-.75-.75h-3a.75.75,0,0,0-.75.75v2a.75.75,0,0,0,.75.75h3a.75.75,0,0,0,.75-.75v-1a2.5,2.5,0,0,0,0-5v-1a.75.75,0,0,0-.75-.75h-3a.75.75,0,0,0-.75.75v1a2.253,2.253,0,0,0-2.25,2.25,1.748,1.748,0,0,1-.618,1.333,4.015,4.015,0,0,0-.8-1.152s0-.007-.007-.01-.007,0-.01-.007a4.048,4.048,0,0,0-.308-.275h0A6.25,6.25,0,1,1,324.3,144Z" transform="translate(-311.549 -131)" fill="#4882ef"/>
    </g>
  </g>
</svg>
