<svg id="img-service-modelr" xmlns="http://www.w3.org/2000/svg" xmlns:xlink="http://www.w3.org/1999/xlink" width="20" height="20" viewBox="0 0 20 20">
  <defs>
    <clipPath id="clip-path">
      <rect id="사각형_3803" data-name="사각형 3803" width="20" height="20" fill="#4882ef"/>
    </clipPath>
  </defs>
  <g id="마스크_그룹_11396" data-name="마스크 그룹 11396" clip-path="url(#clip-path)">
    <g id="그룹_12367" data-name="그룹 12367" transform="translate(0.25 2.75)">
      <path id="패스_11112" data-name="패스 11112" d="M215.436,159.729l-.05,1.1,1.685.855.449-1.148a.377.377,0,0,0,.513-.013l.948-.937a.38.38,0,0,0,0-.537l-.025-.025,1.3-.491-.835-1.7-1.279.044a5.732,5.732,0,0,0-1.828-1.594,1.8,1.8,0,0,0-2.551,2.521A5.8,5.8,0,0,0,215.436,159.729Zm2.024-1.37-.638.63-.21-.212.637-.63Zm-.63-.638.21.213-.637.63-.21-.213Zm-1.894-1.279a.747.747,0,1,1-.006,1.057A.747.747,0,0,1,214.936,156.442Z" transform="translate(-213.028 -149.021)" fill="#4882ef"/>
      <path id="패스_11113" data-name="패스 11113" d="M224.3,131a6.76,6.76,0,0,0-6.715,6.063,3.954,3.954,0,0,0-3.3-.353,3.948,3.948,0,0,1,.708.214l.013.006c.01,0,.071.035.169.092a3.5,3.5,0,1,1-3.12,3.479c0-.113.006-.225.017-.335-.074-.127-.113-.206-.118-.218l-.006-.014a3.874,3.874,0,0,1-.2-.666,4,4,0,0,0,3.8,5.233h8.75a6.75,6.75,0,0,0,0-13.5Zm5.71,4.214-1.135.854a1.239,1.239,0,0,0-1.955.407l-1.888-.45a2.246,2.246,0,0,0-3.568-2.082l-1.024-1.1a6.243,6.243,0,0,1,9.571,2.375Zm-8.2,3.487.342-.8a2.246,2.246,0,0,0,2.766-1.393l1.889.45c0,.014,0,.026,0,.04a1.24,1.24,0,0,0,.235.725l-1.413,1.521a1.5,1.5,0,0,0-2.131.521l-1.442-.515v0A.746.746,0,0,0,221.806,138.7Zm-3.747-1.31h0a6.235,6.235,0,0,1,2-4.223l1.04,1.115a2.246,2.246,0,0,0,.593,3.424l-.342.8c-.016,0-.031,0-.047,0a.75.75,0,1,0,.578,1.222l1.446.516a1.49,1.49,0,0,0,.764,1.582l-.716,2.108a6.25,6.25,0,0,1-3.982-2.318,3.977,3.977,0,0,0-1.329-4.22Zm-.579,6.61a4.021,4.021,0,0,0,1.707-1.848A6.789,6.789,0,0,0,221.753,144Zm6.818,0c-.141,0-.28-.006-.419-.015l.68-2.006a1.5,1.5,0,0,0,1.427-2.392l1.414-1.523a1.243,1.243,0,0,0,1.773-1.6l1.025-.771a6.247,6.247,0,0,1-5.9,8.3Z" transform="translate(-211.549 -131)" fill="#4882ef"/>
    </g>
  </g>
</svg>
